<?xml version="1.0" encoding="utf-8"?>
<!-- Generator: Adobe Illustrator 27.0.0, SVG Export Plug-In . SVG Version: 6.00 Build 0)  -->
<svg version="1.1" id="Camada_1" xmlns="http://www.w3.org/2000/svg" xmlns:xlink="http://www.w3.org/1999/xlink" x="0px" y="0px"
	 viewBox="0 0 595.3 841.9" style="enable-background:new 0 0 595.3 841.9;" xml:space="preserve">
<style type="text/css">
	.st0{fill:#FFFFFF;stroke:#000000;stroke-miterlimit:10;}
	.st1{fill:none;stroke:#010202;stroke-width:3;stroke-miterlimit:10;}
	.st2{fill:none;stroke:#000000;stroke-width:3;stroke-miterlimit:10;}
</style>
<path class="st0" d="M366.8,401"/>
<path class="st1" d="M302.5,350l5.3-5.7c0.9-1,0.2-2.6-1.1-2.5l-61,1.8c-2.9,0.1-5.6,1.3-7.5,3.4l-17,18c-0.9,1-0.2,2.6,1.1,2.5
	l12.1-0.4c0.4,0,0.8-0.2,1.1-0.5l9.5-10.1c0.3-0.3,0.7-0.5,1.1-0.5l45.6-1.4c0.2,0,0.4,0,0.6-0.1l9.8-4.3
	C302.2,350.2,302.4,350.1,302.5,350z"/>
<path class="st1" d="M249.3,367.1l-7.6,8.1c-0.9,1-0.2,2.5,1.1,2.5l11.3-0.3c1.3,0,2,1.5,1.1,2.5l-33.9,36c-0.9,1-0.2,2.5,1.1,2.5
	l13.1-0.4c0.4,0,0.8-0.2,1-0.5l37.3-39.6l8.9-9.5c0.9-0.9,0.2-2.5-1.1-2.5l-31.3,0.8C249.9,366.6,249.6,366.8,249.3,367.1z"/>
<path class="st2" d="M305.8,462.5"/>
<path class="st2" d="M239.2,529"/>
</svg>
