<?xml version="1.0" encoding="UTF-8"?>
<svg id="Logo" xmlns="http://www.w3.org/2000/svg" viewBox="0 0 322.164 281.001">
  <defs>
    <style>
      .cls-1 {
        fill: #1d1d1b;
      }
    </style>
  </defs>
  <path class="cls-1" d="M312.442,0H9.724C2.277,0-2.398,8.039,1.285,14.512L53.769,106.754c3.666,6.444,12.91,6.567,16.747,.224l24.349-40.249c1.759-2.907,4.91-4.684,8.308-4.684h187.956c3.678,0,7.04-2.078,8.685-5.367l21.313-42.626c3.228-6.456-1.467-14.052-8.685-14.052Z"/>
  <path class="cls-1" d="M91.08,170.893l61.496,103.715c5.113,8.624,17.638,8.498,22.577-.227l17.745-31.346c2.332-4.119,2.25-9.178-.214-13.22l-31.952-52.41c-1.289-2.114-2.04-4.341-2.323-6.562"/>
  <path class="cls-1" d="M170.586,152.712c1.362-.36,2.809-.553,4.323-.553h58.744c4.825,0,9.255-2.662,11.52-6.922l16.758-31.518c4.621-8.69-1.678-19.173-11.52-19.173H119.812c-4.728,0-9.085,2.557-11.391,6.685l-23.788,42.585c-1.361,2.436-2.062,5.127-2.106,7.824"/>
</svg>